<?xml version="1.0" standalone="no"?>
<!DOCTYPE svg PUBLIC "-//W3C//DTD SVG 20010904//EN"
 "http://www.w3.org/TR/2001/REC-SVG-20010904/DTD/svg10.dtd">
<svg version="1.0" xmlns="http://www.w3.org/2000/svg"
 width="285.000000pt" height="285.000000pt" viewBox="0 0 285.000000 285.000000"
 preserveAspectRatio="xMidYMid meet">
<metadata>
Created by potrace 1.14, written by Peter Selinger 2001-2017
</metadata>
<g transform="translate(0.000000,285.000000) scale(0.100000,-0.100000)"
fill="#000000" stroke="none">
<path d="M825 2496 c-149 -47 -251 -163 -273 -311 -27 -171 59 -336 213 -410
49 -23 77 -29 152 -33 l92 -4 -36 90 -36 91 -50 12 c-65 15 -130 77 -147 138
-34 129 58 251 190 251 28 0 64 -6 79 -14 27 -15 29 -14 95 53 l68 68 -32 23
c-74 53 -224 75 -315 46z"/>
<path d="M1171 2286 c-62 -63 -63 -65 -52 -97 21 -62 6 -144 -35 -190 -13 -15
-11 -26 22 -108 l36 -91 28 20 c44 31 80 79 114 150 27 58 31 75 31 155 0 80
-3 97 -32 158 -18 37 -36 67 -40 67 -5 0 -37 -29 -72 -64z"/>
<path d="M1328 1760 c-42 -5 -95 -14 -117 -20 -36 -9 -39 -13 -31 -33 78 -194
100 -242 112 -238 47 13 200 11 260 -3 204 -48 378 -211 440 -411 26 -82 30
-220 9 -305 -72 -301 -375 -501 -678 -446 -213 38 -381 182 -461 394 -22 57
-25 84 -26 182 -1 96 3 127 24 190 41 127 121 229 255 325 l28 20 -53 128
c-42 103 -56 127 -69 122 -101 -38 -279 -203 -353 -330 -299 -508 -34 -1152
537 -1306 113 -31 326 -31 437 -1 320 87 562 332 640 650 29 119 29 303 -1
417 -44 165 -138 324 -259 436 -187 173 -442 256 -694 229z"/>
</g>
</svg>
